<?xml version="1.0" standalone="no"?>
<!DOCTYPE svg PUBLIC "-//W3C//DTD SVG 20010904//EN"
 "http://www.w3.org/TR/2001/REC-SVG-20010904/DTD/svg10.dtd">
<svg version="1.0" xmlns="http://www.w3.org/2000/svg"
 width="256.000000pt" height="256.000000pt" viewBox="0 0 256.000000 256.000000"
 preserveAspectRatio="xMidYMid meet">
<metadata>
Created by potrace 1.11, written by Peter Selinger 2001-2013
</metadata>
<g transform="translate(0.000000,256.000000) scale(0.100000,-0.100000)"
fill="#000000" stroke="none">
<path d="M90 1835 c0 -417 3 -635 10 -635 5 0 9 -6 7 -12 -3 -20 58 -22 77 -3
13 13 16 40 17 143 1 70 3 161 5 202 2 41 3 80 3 85 1 6 0 200 -2 432 l-2 423
-57 0 -58 0 0 -635z"/>
<path d="M232 2403 l3 -68 353 -3 c232 -1 360 1 372 8 16 8 20 21 20 58 0 27
-5 53 -12 60 -9 9 -106 12 -375 12 l-364 0 3 -67z"/>
<path d="M670 2286 c0 -2 8 -10 18 -17 15 -13 16 -12 3 4 -13 16 -21 21 -21
13z"/>
<path d="M871 2084 c19 -22 36 -39 39 -37 2 2 -13 20 -35 41 l-39 37 35 -41z"/>
<path d="M977 2073 c-4 -3 -7 -138 -7 -300 0 -228 -3 -293 -12 -293 -9 0 -9
-3 -2 -8 5 -4 18 -28 28 -54 10 -26 37 -69 61 -95 l44 -48 1 175 c1 96 1 268
1 382 0 142 3 209 11 214 18 11 -33 33 -78 34 -22 0 -44 -3 -47 -7z"/>
<path d="M1683 2061 c-18 -29 -19 -271 -2 -282 8 -5 9 -9 3 -9 -8 0 -13 -43
-16 -127 -5 -147 -18 -180 -90 -250 -71 -68 -115 -86 -206 -82 -70 4 -82 7
-137 44 -33 22 -69 54 -80 71 -11 18 -25 40 -32 50 -10 15 -12 -5 -10 -106 l2
-124 46 -29 c44 -27 53 -28 198 -33 142 -5 156 -4 204 16 29 13 64 31 80 42
l27 19 0 -30 c0 -17 5 -31 10 -31 6 0 10 -6 10 -14 0 -21 87 -26 106 -5 12 13
14 85 14 445 0 321 -3 433 -12 442 -7 7 -33 12 -58 12 -34 0 -48 -5 -57 -19z"/>
<path d="M2250 2076 c0 -2 8 -10 18 -17 15 -13 16 -12 3 4 -13 16 -21 21 -21
13z"/>
<path d="M1145 2060 c3 -5 8 -10 11 -10 2 0 4 5 4 10 0 6 -5 10 -11 10 -5 0
-7 -4 -4 -10z"/>
<path d="M1190 2060 c0 -6 7 -10 15 -10 8 0 15 2 15 4 0 2 -7 6 -15 10 -8 3
-15 1 -15 -4z"/>
<path d="M1355 2060 c-3 -5 1 -10 9 -10 9 0 16 5 16 10 0 6 -4 10 -9 10 -6 0
-13 -4 -16 -10z"/>
<path d="M1572 2060 c2 -8 10 -15 16 -14 7 1 23 2 37 3 32 1 32 16 0 17 -14 1
-25 -3 -25 -8 0 -6 -7 -4 -17 3 -14 12 -16 12 -11 -1z"/>
<path d="M2349 2053 c-13 -17 -13 -17 6 -3 11 8 22 16 24 17 2 2 0 3 -6 3 -6
0 -17 -8 -24 -17z"/>
<path d="M948 1878 c-2 -90 0 -203 3 -253 3 -56 6 6 7 163 1 138 0 252 -3 252
-2 0 -5 -73 -7 -162z"/>
<path d="M2300 2020 c0 -5 4 -10 9 -10 6 0 13 5 16 10 3 6 -1 10 -9 10 -9 0
-16 -4 -16 -10z"/>
<path d="M1605 1979 c-4 -6 -5 -12 -2 -15 2 -3 7 2 10 11 7 17 1 20 -8 4z"/>
<path d="M1304 1908 c3 -7 9 -21 12 -30 6 -16 24 -26 24 -13 0 13 -25 55 -32
55 -6 0 -7 -6 -4 -12z"/>
<path d="M239 1889 c-6 -3 -9 -35 -7 -70 l3 -64 262 0 261 -1 18 31 c22 35 23
46 11 62 -5 7 -6 17 -2 23 4 6 3 10 -2 9 -4 -1 -15 1 -23 4 -19 9 -509 14
-521 6z"/>
<path d="M2025 1819 c-4 -6 -5 -12 -2 -15 2 -3 7 2 10 11 7 17 1 20 -8 4z"/>
<path d="M1408 1793 c7 -3 16 -2 19 1 4 3 -2 6 -13 5 -11 0 -14 -3 -6 -6z"/>
<path d="M1425 1770 c3 -5 10 -10 16 -10 5 0 9 5 9 10 0 6 -7 10 -16 10 -8 0
-12 -4 -9 -10z"/>
<path d="M240 1710 c0 -5 5 -10 11 -10 5 0 7 5 4 10 -3 6 -8 10 -11 10 -2 0
-4 -4 -4 -10z"/>
<path d="M270 1668 c0 -9 5 -20 10 -23 13 -8 13 5 0 25 -8 13 -10 13 -10 -2z"/>
<path d="M1536 1672 c-3 -6 1 -15 8 -21 8 -7 17 -8 20 -3 3 6 -1 15 -8 21 -8
7 -17 8 -20 3z"/>
<path d="M1264 1645 c-16 -12 -17 -14 -3 -15 9 0 19 7 23 15 7 19 5 19 -20 0z"/>
<path d="M310 1626 c0 -2 7 -7 16 -10 8 -3 12 -2 9 4 -6 10 -25 14 -25 6z"/>
<path d="M1535 1500 c3 -5 13 -6 22 -3 12 5 14 3 8 -7 -5 -9 -4 -11 4 -6 16
10 4 26 -20 26 -11 0 -18 -4 -14 -10z"/>
<path d="M1933 1495 c-4 -5 -3 -7 2 -3 4 4 14 3 20 -2 9 -7 16 -6 25 5 11 13
8 15 -15 13 -14 -1 -29 -7 -32 -13z"/>
<path d="M2007 1499 c8 -8 16 -8 30 0 16 9 14 10 -11 11 -22 0 -27 -3 -19 -11z"/>
<path d="M2065 1500 c4 -6 11 -8 16 -5 14 9 11 15 -7 15 -8 0 -12 -5 -9 -10z"/>
<path d="M2108 1503 c6 -2 18 -2 25 0 6 3 1 5 -13 5 -14 0 -19 -2 -12 -5z"/>
<path d="M2150 1503 c0 -10 107 -9 116 0 4 4 -20 7 -54 7 -34 0 -62 -3 -62 -7z"/>
<path d="M2290 1502 c0 -9 118 -7 127 2 4 3 -24 6 -60 6 -37 0 -67 -4 -67 -8z"/>
<path d="M2438 1503 c7 -3 16 -2 19 1 4 3 -2 6 -13 5 -11 0 -14 -3 -6 -6z"/>
<path d="M2470 1500 c0 -5 7 -7 15 -4 8 4 15 8 15 10 0 2 -7 4 -15 4 -8 0 -15
-4 -15 -10z"/>
<path d="M2525 1500 c3 -5 12 -7 20 -3 21 7 19 13 -6 13 -11 0 -18 -4 -14 -10z"/>
<path d="M544 1477 c-4 -6 -4 -9 1 -5 4 4 21 0 37 -8 24 -12 33 -13 42 -3 8 9
8 10 -1 5 -7 -4 -26 0 -42 9 -23 12 -31 12 -37 2z"/>
<path d="M916 1465 c-3 -8 -1 -15 4 -15 6 0 10 7 10 15 0 8 -2 15 -4 15 -2 0
-6 -7 -10 -15z"/>
<path d="M2366 1364 c-4 -10 -7 -124 -7 -255 0 -132 -3 -239 -6 -239 -4 0 -29
21 -56 48 -27 26 -47 41 -45 33 2 -11 -9 -14 -52 -14 -30 1 -133 2 -227 3
l-173 2 -65 -48 c-36 -26 -65 -51 -65 -56 0 -4 -16 -30 -35 -57 -54 -75 -67
-122 -68 -241 0 -134 18 -197 82 -282 49 -64 92 -102 146 -130 17 -8 45 -22
63 -31 26 -13 62 -17 166 -17 121 0 137 2 184 25 29 14 56 25 62 25 21 0 139
128 164 177 14 29 25 54 24 56 -2 2 2 10 8 18 17 21 19 106 15 559 -2 265 -7
420 -13 428 -16 19 -94 16 -102 -4z m-204 -548 c52 -25 132 -106 158 -161 26
-54 31 -154 12 -221 -23 -78 -128 -181 -208 -203 -68 -19 -171 -14 -223 11
-57 29 -132 101 -162 159 -33 63 -34 194 -1 262 12 26 27 47 33 47 6 0 8 4 5
8 -8 13 77 84 125 104 59 24 207 21 261 -6z"/>
<path d="M2195 1010 c10 -11 20 -20 23 -20 3 0 -3 9 -13 20 -10 11 -20 20 -23
20 -3 0 3 -9 13 -20z"/>
<path d="M715 915 c-74 -52 -140 -134 -161 -200 -9 -27 -22 -56 -28 -64 -13
-17 -12 -216 2 -251 5 -14 11 -29 12 -35 2 -5 14 -27 26 -47 13 -21 24 -42 24
-47 0 -26 110 -119 181 -154 l75 -37 137 0 c85 0 138 4 142 11 4 6 13 8 21 5
8 -3 14 -2 14 3 0 5 11 12 24 15 14 3 45 22 70 41 l46 35 0 -43 c0 -24 5 -48
12 -55 16 -16 100 -16 116 0 9 9 12 82 12 268 0 273 -7 325 -51 397 -32 52
-105 130 -155 164 l-41 28 -209 4 -209 4 -60 -42z m371 -87 c26 -7 60 -25 77
-40 16 -16 33 -28 37 -28 14 0 57 -64 76 -115 26 -68 24 -175 -4 -237 -27 -61
-95 -128 -167 -163 -52 -25 -64 -27 -145 -23 -82 4 -93 7 -143 41 -54 35 -107
93 -107 115 0 7 -4 12 -9 12 -19 0 -36 68 -36 145 0 70 4 86 29 129 72 123
154 176 273 176 40 0 94 -6 119 -12z"/>
<path d="M2520 685 c13 -14 26 -25 28 -25 3 0 -5 11 -18 25 -13 14 -26 25 -28
25 -3 0 5 -11 18 -25z"/>
</g>
</svg>
